<?xml version="1.0" encoding="utf-8"?>
<!-- Generator: Adobe Illustrator 25.0.0, SVG Export Plug-In . SVG Version: 6.00 Build 0)  -->
<!DOCTYPE svg PUBLIC "-//W3C//DTD SVG 1.1//EN" "http://www.w3.org/Graphics/SVG/1.1/DTD/svg11.dtd" [
	<!ENTITY ns_extend "http://ns.adobe.com/Extensibility/1.0/">
	<!ENTITY ns_ai "http://ns.adobe.com/AdobeIllustrator/10.0/">
	<!ENTITY ns_graphs "http://ns.adobe.com/Graphs/1.0/">
	<!ENTITY ns_vars "http://ns.adobe.com/Variables/1.0/">
	<!ENTITY ns_imrep "http://ns.adobe.com/ImageReplacement/1.0/">
	<!ENTITY ns_sfw "http://ns.adobe.com/SaveForWeb/1.0/">
	<!ENTITY ns_custom "http://ns.adobe.com/GenericCustomNamespace/1.0/">
	<!ENTITY ns_adobe_xpath "http://ns.adobe.com/XPath/1.0/">
]>
<svg version="1.1" id="Layer_1" xmlns:x="&ns_extend;" xmlns:i="&ns_ai;" xmlns:graph="&ns_graphs;"
	 xmlns="http://www.w3.org/2000/svg" xmlns:xlink="http://www.w3.org/1999/xlink" x="0px" y="0px" viewBox="0 0 2048 382.3"
	 style="enable-background:new 0 0 2048 382.3;" xml:space="preserve">
<style type="text/css">
	.st0{fill:#333333;}
	.st1{fill:url(#AB_Icon_1_);}
	.st2{fill:#C08329;}
</style>
<metadata>
	<sfw  xmlns="&ns_sfw;">
		<slices></slices>
		<sliceSourceBounds  bottomLeftOrigin="true" height="357.5" width="1833.6" x="107.2" y="-369.9"></sliceSourceBounds>
		<optimizationSettings>
			<targetSettings  fileFormat="PNG24Format" targetSettingsID="0">
				<PNG24Format  filtered="false" interlaced="true" matteColor="#FFFFFF" noMatteColor="false" transparency="true">
					</PNG24Format>
			</targetSettings>
		</optimizationSettings>
	</sfw>
</metadata>
<g>
	<g>
		<circle class="st0" cx="286" cy="191.1" r="178.8"/>
		<radialGradient id="AB_Icon_1_" cx="285.4499" cy="64.3167" r="174.6299" gradientUnits="userSpaceOnUse">
			<stop  offset="0.1798" style="stop-color:#F4E8D9"/>
			<stop  offset="0.5899" style="stop-color:#EDD089"/>
			<stop  offset="1" style="stop-color:#C08329"/>
		</radialGradient>
		<path id="AB_Icon_3_" class="st1" d="M425.8,131.5c-7.7-18.1-18.7-34.4-32.6-48.4c-14-14-30.3-25-48.4-32.6
			c-6.1-2.6-12.2-4.7-18.5-6.5c-8.8-2.4-17.8-4.1-27-4.9c-4.6-0.4-9.1-0.6-13.8-0.6c-4.6,0-9.2,0.2-13.7,0.6
			c-9.2,0.8-18.2,2.4-27,4.9c-6.3,1.7-12.5,3.9-18.6,6.5C208,58.1,191.7,69.1,177.7,83c-14,14-25,30.3-32.6,48.4
			c-7.9,18.8-12,38.7-12,59.3s4,40.5,12,59.3c0.4,1.1,0.9,2.1,1.4,3.1c4,8.9,8.9,17.4,14.5,25.4c0.8,1.2,1.7,2.4,2.6,3.5
			c4.3,5.8,9.1,11.2,14.2,16.4c0.3,0.3,0.7,0.6,1,1c13.8,13.5,29.7,24.2,47.4,31.7c18.8,7.9,38.7,12,59.3,12c20.6,0,40.5-4,59.3-12
			c17.7-7.5,33.7-18.2,47.5-31.7c0.3-0.3,0.6-0.6,1-0.9c5.2-5.2,9.9-10.6,14.2-16.4c0.9-1.2,1.8-2.4,2.6-3.6
			c5.6-7.9,10.4-16.4,14.4-25.3c0.5-1,0.9-2.1,1.4-3.1c7.9-18.8,12-38.7,12-59.3S433.7,150.2,425.8,131.5z M395.4,253.2
			c-0.6-1-1.1-2-1.7-3c-13.8-22.8-34.6-40.9-59.4-51.3l44.5,77.1c-23.1,25.3-56.4,41.2-93.3,41.2c-36.9,0-70.1-15.9-93.2-41.1
			l44.5-77.2c-24.5,10.3-45.1,28-58.9,50.4c-0.8,1.3-1.6,2.6-2.3,3.9c-5.1-9-9.2-18.7-12-28.9c-2.9-10.7-4.5-21.9-4.5-33.5
			c0-60.4,42.5-111,99.2-123.5c8.5-1.9,17.4-2.9,26.4-3l-14.1,24.4l-52,90c2.5-1.2,5-2.4,7.6-3.5c9.6-4,19.4-7.1,29.5-9.1l29.8-51.7
			l29.8,51.7c10.1,2,19.9,5,29.4,9.1c2.6,1.1,5.1,2.3,7.6,3.5l-52-90.1l-14.1-24.4c9.1,0.1,17.9,1.1,26.4,3
			c56.6,12.5,99.2,63.1,99.2,123.5c0,11.6-1.6,22.8-4.5,33.5C404.6,234.5,400.5,244.2,395.4,253.2z"/>
	</g>
	<g>
		<g>
			<path class="st0" d="M634.8,262.4h-32.3l-1.4-22.1h-51.4l-10.9,22.1h-30.9l74.1-142.4h41.8L634.8,262.4z M600,216.7l-4.4-68.2
				l-34.5,68.2H600z"/>
			<path class="st0" d="M758.3,233.5l-6.2,28.9h-95.5l30-142.4h32.1l-24,113.6H758.3z"/>
			<path class="st0" d="M848.6,147.9l-24.3,114.5h-32l24.3-114.5h-34.5l5.9-28h101.2l-5.9,28H848.6z"/>
			<path class="st0" d="M987,262.4h-80.6c-7,0-12.1-1.3-15.3-3.8c-3.2-2.5-4.8-6.5-4.8-11.8c0-3.2,0.4-6.3,1.1-9.2l19.5-92.8
				c1.8-8.6,5.1-14.8,9.6-18.8c4.6-4,11.2-6,19.9-6h80.2l-5.9,28.4h-64.4c-3.4,0-5.6,0.5-6.8,1.6c-1.2,1.1-2.1,3.2-2.8,6.4l-15,69.5
				c-0.3,1.7-0.4,2.8-0.4,3.3c0,2.9,2.3,4.4,7,4.4h64.9L987,262.4z"/>
			<path class="st0" d="M1107.9,262.4h-70.9c-7,0-12.1-1.3-15.4-3.8c-3.3-2.5-4.9-6.4-4.9-11.6c0-2.7,0.4-5.9,1.3-9.5l19.5-92.8
				c1.8-8.7,5-15,9.5-18.9c4.5-3.9,11.2-5.9,20-5.9h70.9c7,0,12.1,1.3,15.3,3.8c3.2,2.5,4.8,6.4,4.8,11.8c0,2.4-0.4,5.5-1.1,9.2
				l-19.5,92.8c-1.8,8.6-5.1,14.9-9.6,18.9C1123.2,260.4,1116.6,262.4,1107.9,262.4z M1107.5,226.8l15.2-70.9
				c0.3-1.7,0.4-2.8,0.4-3.4c0-3.2-2.5-4.8-7.4-4.8h-39.8c-2.8,0-4.8,0.6-6.1,1.8c-1.3,1.2-2.2,3.3-2.7,6.4l-15.2,70.9
				c-0.3,1.4-0.4,2.3-0.4,2.8c0,2.9,2.1,4.4,6.2,4.4h39.8c3.2,0,5.6-0.5,7-1.6C1105.9,231.3,1106.9,229.5,1107.5,226.8z"/>
			<path class="st0" d="M1193.7,262.4h-32l30.1-142.4h32L1193.7,262.4z"/>
			<path class="st0" d="M1349.2,262.4h-21.3l-53.9-93.4l-19.8,93.4h-29.6l30-142.4h30.1l46.8,85l17.9-85h29.9L1349.2,262.4z"/>
		</g>
		<g>
			<path class="st2" d="M1471.2,262.4h-89.9l24.5-115.3h18.9l-7.4,34.7h63.6c4.2,0,7.3-0.8,9.2-2.3c2-1.5,3.3-4.1,4-7.7l4.6-21.9
				c0.4-2.1,0.6-3.9,0.6-5.4c0-2.7-0.8-4.6-2.3-5.7c-1.5-1.1-4.1-1.7-7.6-1.7h-81.7l3.6-17.2h88c13.5,0,20.2,5.2,20.2,15.7
				c0,2.1-0.4,4.9-1.1,8.4l-5.7,26.7c-2.3,10.8-8.5,16.8-18.7,17.9c9,1,13.5,4.8,13.5,11.4c0,0.8-0.1,2.2-0.4,4.2l-7.2,33.8
				c-1.7,8.3-4.8,14.4-9.2,18.3C1486.3,260.4,1479.8,262.4,1471.2,262.4z M1482.3,232.5l5.2-25.1c0.3-2.3,0.4-3.6,0.4-4.1
				c0-2.5-0.8-4.3-2.3-5.2c-1.5-0.9-4.2-1.4-8-1.4h-63.5l-10.4,48.4h63.2c4.9,0,8.5-0.9,10.6-2.6
				C1479.8,240.7,1481.4,237.4,1482.3,232.5z"/>
			<path class="st2" d="M1619.3,262.4h-68.9c-6.9,0-11.8-1.3-14.9-3.8c-3.1-2.5-4.6-6.4-4.6-11.6c0-2.7,0.4-5.9,1.2-9.5l24.9-117.6
				h18.9L1552,233.1c-0.5,3.1-0.9,5-0.9,5.8c0,2.4,0.7,4,2.2,4.9c1.5,0.9,4,1.3,7.6,1.3h55.9c4.5,0,7.7-0.8,9.6-2.4
				c1.9-1.6,3.3-4.8,4.4-9.6l23.9-113.2h18.3l-24.8,117.6c-1.8,8.6-5,14.9-9.4,18.9S1627.9,262.4,1619.3,262.4z"/>
			<path class="st2" d="M1777.3,262.4h-102.7l3.1-15.1l102.8-110.2h-77.9l3.6-17.2h101.2l-3,14.7l-102.1,110.5h78.5L1777.3,262.4z"
				/>
			<path class="st2" d="M1910.7,262.4H1808l3.1-15.1l102.8-110.2H1836l3.6-17.2h101.2l-3,14.7l-102.1,110.5h78.5L1910.7,262.4z"/>
		</g>
	</g>
</g>
</svg>
