<svg viewBox="0 0 32 32" xmlns="http://www.w3.org/2000/svg" aria-label="DOGE"><circle cx="16" cy="16" r="16" fill="#C2A633"/><path fill="#E7C99B" d="M7.5 10.5L10.6 3.5L14.2 10.5Z"/><path fill="#E7C99B" d="M24.5 10.5L21.4 3.5L17.8 10.5Z"/><path fill="#C98A2E" d="M9.4 9.4L10.9 5.6L12.6 9.4Z"/><path fill="#C98A2E" d="M22.6 9.4L21.1 5.6L19.4 9.4Z"/><ellipse cx="16" cy="17.4" rx="8.4" ry="8.7" fill="#E7C99B"/><ellipse cx="16" cy="20.4" rx="5.7" ry="5.3" fill="#F7EAD1"/><path fill="#F7EAD1" d="M14.5 10.2Q16 8.4 17.5 10.2L16.9 17.6Q16 18.6 15.1 17.6Z"/><ellipse cx="12.4" cy="15.1" rx="1.35" ry="1.75" fill="#2E241A"/><ellipse cx="19.6" cy="15.1" rx="1.35" ry="1.75" fill="#2E241A"/><circle cx="12" cy="14.5" r="0.45" fill="#fff"/><circle cx="19.2" cy="14.5" r="0.45" fill="#fff"/><path fill="#2E241A" d="M14.5 18.2Q16 17.4 17.5 18.2Q16 20.1 14.5 18.2Z"/><path fill="none" stroke="#2E241A" stroke-width="0.75" stroke-linecap="round" d="M16 19.7L16 21.1M16 21.1Q13.7 22.4 12.7 20.8M16 21.1Q18.3 22.4 19.3 20.8"/></svg>
